<svg width="400" height="400" fill="none" xmlns="http://www.w3.org/2000/svg"><path d="M200 48C68.296 48 48 121.519 48 200s22.777 152 152 152 152-73.519 152-152S331.704 48 200 48z" fill="#fa0"/><path d="M250.146 115.51c-2.234-2.114-5.857-1.96-8.084.16-9.963 9.468-18.507 20.859-25.219 33.628a120.253 120.253 0 00-32.81 0c-6.452-12.414-14.954-23.765-25.183-33.621-2.225-2.122-5.85-2.28-8.086-.166C125.285 139.592 109 176.069 109 217.042c0 38.059 40.928 68.868 91.458 68.868 50.492 0 91.458-30.809 91.458-68.868 0-40.974-16.321-77.451-41.77-101.532z" fill="#fff"/><circle cx="235.556" cy="207.444" r="20.444" fill="#fa0"/><circle cx="164.444" cy="207.444" r="20.444" fill="#fa0"/></svg>