<svg width="363" height="363" fill="none" xmlns="http://www.w3.org/2000/svg"><g filter="url(#prefix__prefix__filter0_f_45_11)"><path d="M173.155 20h16.682c13.441.416 26.878 1.462 40.141 3.698 18.524 3.206 36.895 8.673 53.202 18.201 1.276 4.934 2.762 9.828 3.549 14.879 3.408 19.38 1.252 39.684-6.08 57.942-9.274 23.357-27.14 43.132-49.399 54.785-15.254 8.018-32.469 12.29-49.702 12.27l-.06-.081c8.58-14.584 13.388-31.331 14.216-48.216 1.199-23.854-5.939-48.026-19.929-67.39-12.06-16.865-29.171-30.043-48.543-37.423-2.342-.865-4.671-1.801-7.114-2.334 17.369-4.143 35.223-5.77 53.037-6.331z" fill="#F2901B"/><path d="M66.916 50.612c15.484-12.197 34.137-19.767 53.202-24.281 2.443.533 4.772 1.47 7.114 2.334 19.372 7.38 36.483 20.558 48.543 37.423 13.99 19.364 21.128 43.536 19.929 67.39-.828 16.885-5.636 33.632-14.216 48.216-8.822-15.173-21.363-28.174-36.313-37.379-22.372-13.922-50-19.09-75.89-14.111-17.66 3.254-34.358 11.179-48.247 22.537.319-5.536 1.025-11.039 1.752-16.53 2.689-18.746 7.728-37.411 17.083-53.99 6.815-12.176 16.008-23.05 27.043-31.609z" fill="#F5CC22"/><path d="M283.18 41.9c7.304 4.138 14.015 9.253 20.188 14.926 10.392 9.803 18.694 21.762 24.508 34.8 6.423 14.106 10.126 29.303 12.338 44.602 1.672 11.866 2.427 23.845 2.786 35.82v18.492c-.222 6.771-.557 13.538-1.143 20.284-10.893 8.927-23.534 15.73-37.027 19.784-16.32 4.958-33.835 5.867-50.59 2.725a106.905 106.905 0 01-42.584-18.233c-12.27-8.777-22.525-20.248-30.172-33.237l.064-.088c17.233.02 34.448-4.252 49.702-12.27 22.259-11.653 40.125-31.428 49.399-54.785 7.332-18.258 9.488-38.562 6.08-57.942-.787-5.051-2.273-9.945-3.549-14.879z" fill="#E94636"/><path d="M69.286 130.204c25.888-4.979 53.517.189 75.889 14.111 14.95 9.205 27.491 22.206 36.313 37.379l.06.081c-17.538-.069-35.061 4.364-50.517 12.649a106.845 106.845 0 00-32.15 26.43c-9.634 11.724-16.704 25.537-20.604 40.201-5.196 19.307-4.712 40.04 1.171 59.133-11.697-6.936-22.024-16.142-30.374-26.869-9.137-11.838-15.694-25.521-20.054-39.786-6.303-20.369-8.366-41.756-9.02-62.977V172.06c.25-6.444.416-12.899 1.038-19.319 13.889-11.358 30.588-19.283 48.248-22.537z" fill="#61B73F"/><path d="M131.031 194.424c15.456-8.285 32.979-12.718 50.517-12.649l-.064.088c-8.406 14.333-13.207 30.73-14.156 47.308-1.045 18.213 2.689 36.68 10.76 53.04 11.689 24.064 32.821 43.311 57.846 52.754 1.675.675 3.436 1.127 5.055 1.934-16.784 3.953-34.029 5.548-51.236 6.101h-16.518c-15.241-.501-30.499-1.781-45.454-4.845-16.905-3.408-33.507-9.048-48.333-17.967-5.882-19.093-6.367-39.826-1.17-59.133 3.9-14.664 10.97-28.477 20.603-40.202a106.857 106.857 0 0132.15-26.429z" fill="#2EA2DC"/><path d="M167.328 229.171c.949-16.578 5.75-32.974 14.156-47.308 7.647 12.989 17.902 24.46 30.172 33.237a106.899 106.899 0 0042.584 18.233c16.755 3.142 34.27 2.233 50.589-2.725 13.494-4.054 26.135-10.857 37.028-19.784-1.296 14.866-3.722 29.7-8.264 43.941-3.416 10.772-8.023 21.213-14.168 30.717-7.615 11.983-17.708 22.351-29.328 30.491-14.737 10.223-31.703 16.869-49.108 20.926-1.619-.807-3.38-1.259-5.055-1.934-25.025-9.443-46.157-28.69-57.846-52.754-8.071-16.36-11.805-34.827-10.76-53.04z" fill="#94569F"/></g><path d="M182 29C50.296 29 30 102.519 30 181s22.777 152 152 152 152-73.519 152-152S313.704 29 182 29z" fill="#000"/><path d="M100.059 96.924c2.386-2.758 5.54-5.053 9.201-5.664 3.794-.684 7.651.162 11.28 1.26 4.9 1.572 9.513 3.913 13.951 6.496a122.911 122.911 0 0117.438 12.443 151.884 151.884 0 0121.309-2.401c.214-.019.427-.043.641-.066.538-.059 1.076-.118 1.617-.112l.515-.004c3.776-.027 7.551-.055 11.324.032 1.048.145 2.103.188 3.159.231.86.035 1.72.07 2.576.161 5.722.386 11.42 1.118 17.059 2.159a122.772 122.772 0 0113.106-9.764c4.412-2.852 8.999-5.46 13.839-7.517 3.758-1.584 7.71-2.844 11.799-3.13 1.133-.137 2.251.047 3.368.23.364.06.728.12 1.093.17 3.423.769 6.358 2.96 8.62 5.584 3.7 4.331 6.089 9.594 8.007 14.915 4.112 12.035 5.999 24.697 7.28 37.302-.115.984.341 1.814.795 2.64v.001h.001c.172.314.344.627.485.948 3.035 5.775 5.472 11.85 7.458 18.059 1.629 4.895 2.666 9.983 3.364 15.091 1.051 7.951.92 16.138-.984 23.962-.199 1.743-.739 3.403-1.28 5.062-.299.918-.598 1.835-.839 2.767l-.026.058 9.908 4.017a5 5 0 11-3.757 9.267l-10.424-4.225-.091.208a58.628 58.628 0 01-3.326 5.453l10.598 4.297a5 5 0 11-3.757 9.267l-13.458-5.455a73.778 73.778 0 01-6.856 6.294l12.071 4.894a5 5 0 11-3.757 9.267l-18.112-7.342c-.78.466-1.567.92-2.36 1.361-6.783 3.853-14.074 6.751-21.51 9.086-12.074 3.692-24.624 5.687-37.2 6.487-1.082-.034-2.159.053-3.235.14-1.088.088-2.176.175-3.268.138-1.97-.007-3.94-.004-5.91 0h-.003c-3.136.006-6.273.012-9.409-.028-1.149-.173-2.308-.199-3.466-.225-1.118-.024-2.237-.049-3.346-.206a167.126 167.126 0 01-23.329-3.301c-10.604-2.318-21.023-5.74-30.66-10.783a94.5 94.5 0 01-4.376-2.441l-17.548 7.114a5 5 0 11-3.757-9.267l11.45-4.642a74.924 74.924 0 01-6.918-6.27l-12.775 5.179a5 5 0 11-3.757-9.267l9.857-3.996a35.9 35.9 0 01-1.088-1.694c-.915-1.243-1.649-2.593-2.36-3.955l-9.652 3.912a5 5 0 11-3.757-9.267l9.104-3.691a123.68 123.68 0 00-.161-.381c-.246-.956-.552-1.892-.858-2.829-.378-1.157-.756-2.314-1.02-3.508-.163-1.054-.382-2.099-.6-3.143-.297-1.415-.593-2.829-.75-4.269-.183-1.036-.244-2.083-.305-3.13-.05-.846-.1-1.693-.213-2.534-.369-7.599.671-15.213 2.488-22.582l.174-.673v-.001c.454-1.753.91-3.512 1.585-5.195 2.038-6.404 4.69-12.61 7.861-18.533l.04-.079c.193-.372.39-.754.419-1.178 1.125-11.467 2.771-22.942 6.016-34.021 2.097-6.816 4.724-13.692 9.402-19.183z" fill="#fff"/><defs><filter id="prefix__prefix__filter0_f_45_11" x="0" y="0" width="363" height="363" filterUnits="userSpaceOnUse" color-interpolation-filters="sRGB"><feFlood flood-opacity="0" result="BackgroundImageFix"/><feBlend in="SourceGraphic" in2="BackgroundImageFix" result="shape"/><feGaussianBlur stdDeviation="10" result="effect1_foregroundBlur_45_11"/></filter></defs></svg>