<svg width="1600" height="1600" viewBox="0 0 1200 1200" xmlns="http://www.w3.org/2000/svg"><path fill="#ffae00" d="M583.52 0h34.84c71.95 2.25 143.59 17.05 210.2 44.5C940.08 89.99 1037 170.11 1103.07 270.77c49.06 74.33 81.23 159.76 93.15 248.03 1.66 10.99 2.51 22.06 3.78 33.1v97.51c-6.93 86.26-32.55 171.04-75.16 246.41-39.87 70.92-94.33 133.58-158.93 183.02-62.72 48.13-135.05 83.72-211.53 103.8-32.37 8.6-65.49 14.29-98.83 17.36H545.67c-87.43-8.1-173.1-35.39-248.74-80.06-90.92-53.27-167.38-130.9-219.23-222.63C29.28 812.33 2.63 715.27 0 617.58v-33.97c2.25-71.42 16.83-142.54 43.87-208.74 23.29-57.44 55.63-111.18 95.35-158.75 62.89-75.52 144.52-135.4 235.65-172.26C441.03 16.78 512.13 2.27 583.52 0m-17.49 181.93c-77.23 6.09-152.68 34.12-215 80.22-41.08 30.18-76.54 67.97-104.08 110.87-26.79 41.63-46.04 88.08-56.63 136.43-11.66 53.3-13.04 108.86-3.93 162.64 13.48 80.54 51.43 156.71 107.31 216.23 42.81 45.92 96.04 82.06 154.54 104.86 12.81 5.24 26.73 8.29 38.1 16.54 21.29 14.41 34.37 39.67 34.57 65.29.06 40.56-.01 81.12.03 121.69 8.23-3.58 16.31-7.48 24.4-11.35 39.52-19.45 77.93-41.12 115.15-64.68 62.94-39.86 122.61-85.16 176.11-137.1 55.28-53.9 104.11-115.41 137.9-185.14 18.92-39.08 32.92-80.66 40.3-123.49 6.48-36.84 8.11-74.55 4.75-111.81-6.75-77.76-36.06-153.39-83.26-215.57-40.92-54.23-95.15-98.35-156.66-127.22-49.6-23.46-103.93-36.78-158.68-39.38-18.31-.48-36.67-.64-54.92.97z"/><ellipse fill="#ffae00" cx="462" cy="500" rx="88" ry="88"/><ellipse fill="#ffae00" cx="738" cy="500" rx="88" ry="88"/></svg>