<svg width="128" height="128" xmlns="http://www.w3.org/2000/svg"><circle cx="64" cy="64" r="64" fill="#FEAA32"/><g fill="#fff"><path d="M52.76 23.667c12.477-3.063 26.305-.799 36.956 6.449 4.525 3.465 8.751 7.47 11.748 12.367 3.915 6.141 5.934 13.408 5.971 20.674-.241 5.153-1.498 10.24-3.64 14.934-3.517 8.373-9.465 15.649-16.873 20.892-2.094 1.948-4.604 3.309-6.94 4.926-7.37 4.732-15.317 8.581-23.628 11.337-.18-4.146.212-8.321-.227-12.448-9.37-1.404-18.225-6.023-24.797-12.845-2.935-2.572-4.85-6.042-6.826-9.351-3.924-7.834-5.38-16.991-3.437-25.59 1.905-9.413 7.663-17.758 15.194-23.591 4.988-3.508 10.52-6.387 16.5-7.754zm-4.07 14.367c-5.834 3.064-10.717 8.047-13.37 14.108-2.997 6.727-3.016 14.684-.099 21.444 2.827 6.78 8.278 12.108 14.334 16.083 7.054 4.586 14.987 7.692 23.128 9.72.127-3.016-.147-6.046.18-9.053 6.093-1.72 11.54-5.399 15.6-10.221 2.421-3.579 4.695-7.427 5.39-11.758 1.116-5.044.747-10.424-1.187-15.227-2.85-7.262-8.85-13.134-16.012-16.15-8.855-3.81-19.43-3.465-27.964 1.055z"/><circle cx="49" cy="62" r="5"/><circle cx="79" cy="62" r="5"/><circle cx="64" cy="62" r="5"/></g></svg>