<svg version="1.1" xmlns="http://www.w3.org/2000/svg" width="800" height="800" viewBox="0 0 512 512"
	xml:space="preserve">
	<path class="prefix__st0"
		d="M328.094 308.469c-9.953 0-18.031 8.078-18.031 18.031 0 9.938 8.078 18.016 18.031 18.016s18.016-8.078 18.016-18.016c-.001-9.953-8.063-18.031-18.016-18.031zM256 168.813h10.203L256 155.75l-10.203 13.063zM278.594 156.781c7.109 0 12.875-5.781 12.875-12.875v-2.922c0-7.109-5.766-12.875-12.875-12.875s-12.875 5.766-12.875 12.875v2.922c0 7.094 5.765 12.875 12.875 12.875z" />
	<path class="prefix__st0"
		d="M454.406 249.688c31.797 0 57.594-25.781 57.594-57.594S486.203 134.5 454.406 134.5c-31.813 0-48-12.766-70.406-31.969-54.406-35.219-57.594-92.25-128-92.25s-73.594 57.031-128 92.25C105.594 121.734 89.406 134.5 57.594 134.5S0 160.281 0 192.094s25.781 57.594 57.594 57.594h5.844L15.703 423.953l53.391-8.016L90.469 472l26.344-31.984c34.969 37.891 85.016 61.703 140.531 61.703 54.75 0 104.188-23.188 139.078-60.188L421.531 472l21.375-56.063 53.391 8.016-47.734-174.266h5.843zM256 86c34.984 0 52.969 28.094 52.969 57.344 0 10.969-2.391 20-7.781 25.281-7.109 6.969-15.484 6.266-16.313 7V189.844a2.978 2.978 0 01-2.969 2.969h-7.109a2.964 2.964 0 01-2.953-2.969v-9.016c-.688-.391-1.328.078-1.891-.234 0 .031.016.063.016.078v9.172a2.967 2.967 0 01-2.969 2.969h-7.094a2.967 2.967 0 01-2.969-2.969v-9.172c0-.297.063-.578.141-.859h-2.156c.078.281.141.563.141.859v9.172a2.967 2.967 0 01-2.969 2.969H245a2.967 2.967 0 01-2.969-2.969v-9.172c0-.016.016-.047.016-.078-.563.313-1.203-.156-1.891.234v9.016a2.964 2.964 0 01-2.953 2.969h-7.109a2.978 2.978 0 01-2.969-2.969v-1.922-12.297c-.828-.734-9.203-.031-16.313-7-5.391-5.281-7.781-14.313-7.781-25.281C203.031 114.094 221.016 86 256 86zm12.984 163.688l-161.938 76.969a149.695 149.695 0 01-.891-16.188c0-21.625 4.625-42.156 12.844-60.781h149.985zm-11.64 211.968c-70.469 0-129.641-48.5-146.344-113.828l.531 1.109 27.406-13.031c3.719 16.063 14.891 39.766 48.563 37.313 38.891-2.828 55.594-43.656 53.484-85.797l79.391-37.734h75.281c8.219 18.625 12.875 39.156 12.875 60.781 0 83.375-67.828 151.187-151.187 151.187z" />
	<path class="prefix__st0"
		d="M233.406 156.781c7.109 0 12.875-5.781 12.875-12.875v-2.922c0-7.109-5.766-12.875-12.875-12.875s-12.875 5.766-12.875 12.875v2.922c0 7.094 5.766 12.875 12.875 12.875z" />
</svg>